<svg xmlns="http://www.w3.org/2000/svg" viewBox="0 0 900 600">
  <defs>
    <linearGradient id="bg" x1="0" x2="1" y1="0" y2="1">
      <stop offset="0%" stop-color="#f4fbf7"/>
      <stop offset="100%" stop-color="#d9f1e6"/>
    </linearGradient>
    <linearGradient id="tank" x1="0" x2="0" y1="0" y2="1">
      <stop offset="0%" stop-color="#ffffff"/>
      <stop offset="100%" stop-color="#cfe6da"/>
    </linearGradient>
    <linearGradient id="accent" x1="0" x2="1" y1="0" y2="0">
      <stop offset="0%" stop-color="#0a6b4d"/>
      <stop offset="100%" stop-color="#2bbd8e"/>
    </linearGradient>
  </defs>
  <rect width="900" height="600" fill="url(#bg)"/>
  <circle cx="150" cy="120" r="70" fill="#ffffff" opacity="0.45"/>
  <circle cx="740" cy="120" r="80" fill="#ffffff" opacity="0.35"/>

  <rect x="160" y="170" width="170" height="300" rx="28" fill="url(#tank)" stroke="#9ccdbb" stroke-width="6"/>
  <rect x="190" y="140" width="110" height="40" rx="18" fill="#b9dccc"/>
  <rect x="185" y="300" width="120" height="70" rx="18" fill="url(#accent)"/>
  <circle cx="245" cy="335" r="18" fill="#e9fbf3"/>

  <rect x="380" y="130" width="220" height="380" rx="36" fill="url(#tank)" stroke="#9ccdbb" stroke-width="6"/>
  <rect x="430" y="90" width="120" height="40" rx="18" fill="#b9dccc"/>
  <rect x="430" y="260" width="120" height="80" rx="20" fill="url(#accent)"/>
  <rect x="430" y="360" width="120" height="30" rx="14" fill="#e7f7ef"/>

  <rect x="670" y="200" width="90" height="240" rx="22" fill="url(#tank)" stroke="#9ccdbb" stroke-width="6"/>
  <rect x="680" y="175" width="70" height="30" rx="12" fill="#b9dccc"/>
  <rect x="680" y="300" width="70" height="60" rx="14" fill="url(#accent)"/>

  <path d="M260 470h120c40 0 60-20 60-45V250c0-25 20-45 45-45h55" fill="none" stroke="#6dbb9a" stroke-width="10" stroke-linecap="round"/>
  <path d="M560 330h80c25 0 45 20 45 45v65" fill="none" stroke="#6dbb9a" stroke-width="10" stroke-linecap="round"/>
  <circle cx="560" cy="330" r="10" fill="#2bbd8e"/>
  <circle cx="685" cy="445" r="10" fill="#2bbd8e"/>
</svg>
